{
	"asset":{
		"generator":"Khronos glTF Blender I/O v5.1.18",
		"version":"2.0"
	},
	"scene":0,
	"scenes":[
		{
			"name":"Scene",
			"nodes":[
				0
			]
		}
	],
	"nodes":[
		{
			"mesh":0,
			"name":"Plane.003",
			"translation":[
				1.8114991188049316,
				1.2624508142471313,
				24.499568939208984
			]
		}
	],
	"materials":[
		{
			"doubleSided":true,
			"name":"Material.002",
			"normalTexture":{
				"index":0
			},
			"pbrMetallicRoughness":{
				"baseColorTexture":{
					"index":1
				},
				"metallicFactor":0,
				"metallicRoughnessTexture":{
					"index":2
				}
			}
		},
		{
			"doubleSided":true,
			"name":"Material.010",
			"normalTexture":{
				"index":3
			},
			"pbrMetallicRoughness":{
				"baseColorTexture":{
					"index":4
				},
				"metallicFactor":0,
				"metallicRoughnessTexture":{
					"index":5
				}
			}
		},
		{
			"doubleSided":true,
			"name":"Material.003",
			"normalTexture":{
				"index":6
			},
			"pbrMetallicRoughness":{
				"baseColorTexture":{
					"index":7
				},
				"metallicFactor":0,
				"metallicRoughnessTexture":{
					"index":8
				}
			}
		}
	],
	"meshes":[
		{
			"name":"Plane.012",
			"primitives":[
				{
					"attributes":{
						"POSITION":0,
						"NORMAL":1,
						"TEXCOORD_0":2
					},
					"indices":3,
					"material":0
				},
				{
					"attributes":{
						"POSITION":4,
						"NORMAL":5,
						"TEXCOORD_0":6
					},
					"indices":7,
					"material":1
				},
				{
					"attributes":{
						"POSITION":8,
						"NORMAL":9,
						"TEXCOORD_0":10
					},
					"indices":11,
					"material":2
				}
			]
		}
	],
	"textures":[
		{
			"sampler":0,
			"source":0
		},
		{
			"sampler":0,
			"source":1
		},
		{
			"sampler":0,
			"source":2
		},
		{
			"sampler":0,
			"source":3
		},
		{
			"sampler":0,
			"source":4
		},
		{
			"sampler":0,
			"source":5
		},
		{
			"sampler":0,
			"source":6
		},
		{
			"sampler":0,
			"source":7
		},
		{
			"sampler":0,
			"source":8
		}
	],
	"images":[
		{
			"mimeType":"image/png",
			"name":"Gravel040_4K-PNG_NormalGL",
			"uri":"Gravel040_4K-PNG_NormalGL.png"
		},
		{
			"mimeType":"image/png",
			"name":"Gravel040_4K-PNG_Color",
			"uri":"Gravel040_4K-PNG_Color.png"
		},
		{
			"mimeType":"image/png",
			"name":"Gravel040_4K-PNG_Roughness",
			"uri":"Gravel040_4K-PNG_Roughness.png"
		},
		{
			"mimeType":"image/png",
			"name":"Concrete034_4K-PNG_NormalGL",
			"uri":"Concrete034_4K-PNG_NormalGL.png"
		},
		{
			"mimeType":"image/png",
			"name":"Concrete034_4K-PNG_Color",
			"uri":"Concrete034_4K-PNG_Color.png"
		},
		{
			"mimeType":"image/png",
			"name":"Concrete034_4K-PNG_Roughness",
			"uri":"Concrete034_4K-PNG_Roughness.png"
		},
		{
			"mimeType":"image/jpeg",
			"name":"Wood067_4K-JPG_NormalGL",
			"uri":"Wood067_4K-JPG_NormalGL.jpg"
		},
		{
			"mimeType":"image/jpeg",
			"name":"Wood067_4K-JPG_Color",
			"uri":"Wood067_4K-JPG_Color.jpg"
		},
		{
			"mimeType":"image/png",
			"name":"Wood067_4K-JPG_Roughness",
			"uri":"Wood067_4K-JPG_Roughness.png"
		}
	],
	"accessors":[
		{
			"bufferView":0,
			"componentType":5126,
			"count":943,
			"max":[
				19.3048095703125,
				3.6844236850738525,
				1.7538695335388184
			],
			"min":[
				-25.86945915222168,
				-1.0299195051193237,
				-52.439117431640625
			],
			"type":"VEC3"
		},
		{
			"bufferView":1,
			"componentType":5126,
			"count":943,
			"type":"VEC3"
		},
		{
			"bufferView":2,
			"componentType":5126,
			"count":943,
			"type":"VEC2"
		},
		{
			"bufferView":3,
			"componentType":5123,
			"count":2874,
			"type":"SCALAR"
		},
		{
			"bufferView":4,
			"componentType":5126,
			"count":356,
			"max":[
				19.3048095703125,
				1.8174432516098022,
				1.7538695335388184
			],
			"min":[
				-25.86945915222168,
				-1.0299195051193237,
				-52.439117431640625
			],
			"type":"VEC3"
		},
		{
			"bufferView":5,
			"componentType":5126,
			"count":356,
			"type":"VEC3"
		},
		{
			"bufferView":6,
			"componentType":5126,
			"count":356,
			"type":"VEC2"
		},
		{
			"bufferView":7,
			"componentType":5123,
			"count":798,
			"type":"SCALAR"
		},
		{
			"bufferView":8,
			"componentType":5126,
			"count":541,
			"max":[
				19.3048095703125,
				3.6844236850738525,
				1.7538695335388184
			],
			"min":[
				-25.86945915222168,
				1.8174431324005127,
				-52.439117431640625
			],
			"type":"VEC3"
		},
		{
			"bufferView":9,
			"componentType":5126,
			"count":541,
			"type":"VEC3"
		},
		{
			"bufferView":10,
			"componentType":5126,
			"count":541,
			"type":"VEC2"
		},
		{
			"bufferView":11,
			"componentType":5123,
			"count":1434,
			"type":"SCALAR"
		}
	],
	"bufferViews":[
		{
			"buffer":0,
			"byteLength":11316,
			"byteOffset":0,
			"target":34962
		},
		{
			"buffer":0,
			"byteLength":11316,
			"byteOffset":11316,
			"target":34962
		},
		{
			"buffer":0,
			"byteLength":7544,
			"byteOffset":22632,
			"target":34962
		},
		{
			"buffer":0,
			"byteLength":5748,
			"byteOffset":30176,
			"target":34963
		},
		{
			"buffer":0,
			"byteLength":4272,
			"byteOffset":35924,
			"target":34962
		},
		{
			"buffer":0,
			"byteLength":4272,
			"byteOffset":40196,
			"target":34962
		},
		{
			"buffer":0,
			"byteLength":2848,
			"byteOffset":44468,
			"target":34962
		},
		{
			"buffer":0,
			"byteLength":1596,
			"byteOffset":47316,
			"target":34963
		},
		{
			"buffer":0,
			"byteLength":6492,
			"byteOffset":48912,
			"target":34962
		},
		{
			"buffer":0,
			"byteLength":6492,
			"byteOffset":55404,
			"target":34962
		},
		{
			"buffer":0,
			"byteLength":4328,
			"byteOffset":61896,
			"target":34962
		},
		{
			"buffer":0,
			"byteLength":2868,
			"byteOffset":66224,
			"target":34963
		}
	],
	"samplers":[
		{
			"magFilter":9729,
			"minFilter":9987
		}
	],
	"buffers":[
		{
			"byteLength":69092,
			"uri":"citywalls.bin"
		}
	]
}
